# xmcd
#
# Track frame offsets:
# 150
# 12607
# 25352
# 44107
# 64480
# 84972
# 102357
# 123994
# 146719
# 169511
# 186811
# 202031
#
# Disc length: 2945 seconds
#
#
# Revision: 2
# Processed by: cddbd v1.5.2PL0 Copyright (c) Steve Scherf et al.
# Submitted via: FreeRIP 2.945 
#
DISCID=b00b7f0c
DTITLE=Terry Garland - Out Where The Blue Begins
DYEAR=2001
DGENRE=Blues
TTITLE0=Dude Boy Boogie
TTITLE1=Dallas
TTITLE2=Poor Boy Blues
TTITLE3=Courtesy Of Love
TTITLE4=Champagne And Reefer
TTITLE5=Blues Fell This Morning
TTITLE6=Going Home
TTITLE7=Running Back To You
TTITLE8=Can't Be Satisfied
TTITLE9=My Baby Left Town
TTITLE10=Out Where The Blue Begins
TTITLE11=Dust My Broom
EXTD=THX to Norbert and Odette
EXTT0=
EXTT1=
EXTT2=
EXTT3=
EXTT4=
EXTT5=
EXTT6=
EXTT7=
EXTT8=
EXTT9=
EXTT10=
EXTT11=
PLAYORDER=
